IKResults
version=1
nRows=8
nColumns=63
inDegrees=yes

Units are S.I. units (second, meters, Newtons, ...)
If the header above contains a line with 'inDegrees', this indicates whether rotational values are in degrees (yes) or radians (no).

endheader
time	pelvis_tilt	pelvis_list	pelvis_rotation	pelvis_tx	pelvis_ty	pelvis_tz	hip_flexion_r	hip_adduction_r	hip_rotation_r	knee_angle_r	knee_angle_r_beta	ankle_angle_r	subtalar_angle_r	mtp_angle_r	hip_flexion_l	hip_adduction_l	hip_rotation_l	knee_angle_l	knee_angle_l_beta	ankle_angle_l	subtalar_angle_l	mtp_angle_l	L5_S1_Flex_Ext	L5_S1_Lat_Bending	L5_S1_axial_rotation	L4_L5_Flex_Ext	L4_L5_Lat_Bending	L4_L5_axial_rotation	L3_L4_Flex_Ext	L3_L4_Lat_Bending	L3_L4_axial_rotation	L2_L3_Flex_Ext	L2_L3_Lat_Bending	L2_L3_axial_rotation	L1_L2_Flex_Ext	L1_L2_Lat_Bending	L1_L2_axial_rotation	L1_T12_Flex_Ext	L1_T12_Lat_Bending	L1_T12_axial_rotation	Abs_r3	Abs_r2	Abs_r1	Abs_t1	Abs_t2	neck_flexion	neck_bending	neck_rotation	arm_flex_r	arm_add_r	arm_rot_r	elbow_flex_r	pro_sup_r	wrist_flex_r	wrist_dev_r	arm_flex_l	arm_add_l	arm_rot_l	elbow_flex_l	pro_sup_l	wrist_flex_l	wrist_dev_l
      6.03333333	     -1.96352228	     30.03987633	    -54.96853224	     -0.59245818	      0.89328411	     -0.85523666	     27.24311914	    -24.94844067	      9.56728307	      0.16902048	      0.00294996	     16.29435673	    -17.39098331	      0.00000000	     39.45080955	     12.62600541	      3.27410895	     11.52833711	      0.20120744	      2.19525409	     -9.35705537	      0.00000000	     -8.69014980	      0.22738712	     -3.69611547	    -16.13847720	      0.30242486	     -3.92712268	    -14.27704711	      0.55286903	     -3.92712268	     -9.93197221	      0.55286903	     -3.23410103	     -8.06967311	      0.46368781	     -3.00309382	     -4.96555160	      0.35222264	     -2.77208660	    -62.07287101	      2.57224854	    -20.55668539	      0.00000000	      0.00000000	     20.45039474	     13.50914826	    -27.48770582	     14.46787816	    -10.33654290	      6.76373571	     75.05420455	     89.99559364	      0.00000000	      0.00000000	     59.34051438	     -6.55775104	      0.55142446	     21.59356932	     89.99559364	      0.00000000	      0.00000000
      6.06666667	     -1.84107555	     30.73228734	    -55.83280407	     -0.59424945	      0.89187813	     -0.85564412	     28.41068412	    -25.02945280	     11.29075565	      0.16660903	      0.00290788	     15.74233372	    -18.14290499	      0.00000000	     40.60220548	     12.22871494	      0.41729935	     12.33369183	      0.21526353	      3.15017782	     -6.61951728	      0.00000000	     -8.57946160	      0.13183541	     -3.62670756	    -15.93291814	      0.17534110	     -3.85337678	    -14.09519747	      0.32054462	     -3.85337678	     -9.80546667	      0.32054462	     -3.17336911	     -7.96688804	      0.26883877	     -2.94669989	     -4.90230436	      0.20421305	     -2.72003067	    -61.28223628	      1.49134855	    -20.17065943	      0.00000000	      0.00000000	     20.31870883	     14.58329839	    -27.03281309	     14.88407702	    -10.32128391	      6.74683696	     75.05372897	     89.99559364	      0.00000000	      0.00000000	     59.34210482	     -7.09995638	      3.41903168	     21.51353663	     89.99559364	      0.00000000	      0.00000000
      6.10000000	     -1.71733428	     30.76108419	    -55.82628463	     -0.59429269	      0.89172916	     -0.85568935	     28.35334380	    -25.17812554	     11.26412747	      0.15883639	      0.00277222	     15.66704896	    -18.11520309	      0.00000000	     40.70967102	     12.31011073	      0.41740585	     12.55650649	      0.21915238	      3.10446461	     -6.50615104	      0.00000000	     -8.58035474	      0.12823591	     -3.63827109	    -15.93457678	      0.17055375	     -3.86566303	    -14.09666480	      0.31179278	     -3.86566303	     -9.80648743	      0.31179278	     -3.18348720	     -7.96771741	      0.26149866	     -2.95609526	     -4.90281470	      0.19863742	     -2.72870331	    -61.28861585	      1.45063021	    -20.23497229	      0.00000000	      0.00000000	     20.34994530	     14.71326814	    -26.96913272	     14.90299466	    -10.32012922	      6.74610745	     75.05370221	     89.99559364	      0.00000000	      0.00000000	     59.35754053	     -7.07875579	      3.49895170	     21.50063731	     89.99559364	      0.00000000	      0.00000000
      6.13333333	     -1.55749545	     30.88745869	    -55.68573595	     -0.59416636	      0.89126227	     -0.85581672	     28.30864037	    -25.49274199	     11.27532664	      0.15539583	      0.00271217	     15.79000808	    -18.24957062	      0.00000000	     40.94865499	     12.54005744	      0.18801059	     12.92531721	      0.22558934	      3.15416762	     -6.26111720	      0.00000000	     -8.56289332	      0.12217303	     -3.68894411	    -15.90214919	      0.16249013	     -3.91950312	    -14.06797744	      0.29705150	     -3.91950312	     -9.78653078	      0.29705150	     -3.22782610	     -7.95150274	      0.24913524	     -2.99726709	     -4.89283725	      0.18924602	     -2.76670808	    -61.16389073	      1.38204572	    -20.51680046	      0.00000000	      0.00000000	     20.39135030	     14.99921158	    -26.79049224	     14.94976699	    -10.31702234	      6.74432789	     75.05364589	     89.99559364	      0.00000000	      0.00000000	     59.29879629	     -7.13417304	      3.67955689	     21.45710044	     89.99559364	      0.00000000	      0.00000000
      6.16666667	     -1.53262649	     30.90479127	    -55.69207564	     -0.59434420	      0.89105584	     -0.85574291	     28.30381406	    -25.52721150	     11.24594857	      0.15635940	      0.00272899	     15.83818589	    -18.18980582	      0.00000000	     40.99095432	     12.53178413	      0.19583218	     12.96195183	      0.22622874	      3.11673246	     -6.20283106	      0.00000000	     -8.55814858	      0.11937981	     -3.68419982	    -15.89333772	      0.15877515	     -3.91446231	    -14.06018230	      0.29026007	     -3.91446231	     -9.78110801	      0.29026007	     -3.22367484	     -7.94709677	      0.24343931	     -2.99341235	     -4.89012610	      0.18491933	     -2.76314987	    -61.12999948	      1.35044831	    -20.49041415	      0.00000000	      0.00000000	     20.37808777	     15.00383396	    -26.76052473	     14.95363278	    -10.31678964	      6.74417946	     75.05363839	     89.99559364	      0.00000000	      0.00000000	     59.28275658	     -7.12571520	      3.69632006	     21.46641019	     89.99559364	      0.00000000	      0.00000000
      6.20000000	     -1.43366185	     31.07083187	    -55.43019568	     -0.59383179	      0.89062970	     -0.85607108	     28.26699611	    -25.90985191	     11.18134448	      0.15476034	      0.00270108	     15.84014481	    -18.31637331	      0.00000000	     41.25085998	     12.83014486	     -0.03262866	     13.28490334	      0.23186530	      3.10582495	     -5.86688153	      0.00000000	     -8.53180493	      0.12436801	     -3.74219354	    -15.84441493	      0.16540945	     -3.97608063	    -14.01690231	      0.30238837	     -3.97608063	     -9.75099985	      0.30238837	     -3.27441934	     -7.92263406	      0.25361124	     -3.04053225	     -4.87507334	      0.19264604	     -2.80664515	    -60.94182941	      1.40687576	    -20.81295780	      0.00000000	      0.00000000	     20.34580000	     15.24828859	    -26.75448779	     14.99800856	    -10.31483542	      6.74242523	     75.05359887	     89.99559364	      0.00000000	      0.00000000	     59.18435222	     -7.12600884	      3.88491863	     21.45653554	     89.99559364	      0.00000000	      0.00000000
      6.23333333	     -1.44160860	     31.08300551	    -55.42291145	     -0.59387051	      0.89046709	     -0.85605674	     28.27148740	    -25.94240495	     11.16076464	      0.15899459	      0.00277498	     15.88375171	    -18.22155342	      0.00000000	     41.26621019	     12.82768437	     -0.03176627	     13.28789580	      0.23191753	      3.09986630	     -5.81633527	      0.00000000	     -8.52675392	      0.12475698	     -3.73803460	    -15.83503471	      0.16592678	     -3.97166176	    -14.00860402	      0.30333412	     -3.97166176	     -9.74522706	      0.30333412	     -3.27078028	     -7.91794369	      0.25440444	     -3.03715311	     -4.87218719	      0.19324856	     -2.80352595	    -60.90575059	      1.41127592	    -20.78982705	      0.00000000	      0.00000000	     20.31852459	     15.25340038	    -26.75487651	     15.00258997	    -10.31471462	      6.74223854	     75.05359184	     89.99559364	      0.00000000	      0.00000000	     59.18376431	     -7.13199314	      3.90395234	     21.47132355	     89.99559364	      0.00000000	      0.00000000
      6.26666667	     -1.46116017	     31.09313538	    -55.41888085	     -0.59379894	      0.89039403	     -0.85608117	     28.27818479	    -25.97793282	     11.14393173	      0.16563353	      0.00289085	     15.90627303	    -18.11302683	      0.00000000	     41.26711929	     12.83068145	     -0.02617042	     13.28095498	      0.23179639	      3.08779310	     -5.77598747	      0.00000000	     -8.52340743	      0.12663644	     -3.73603835	    -15.82881994	      0.16842647	     -3.96954075	    -14.00310607	      0.30790385	     -3.96954075	     -9.74140235	      0.30790385	     -3.26903356	     -7.91483614	      0.25823704	     -3.03553116	     -4.87027501	      0.19615985	     -2.80202877	    -60.88184695	      1.43253677	    -20.77872451	      0.00000000	      0.00000000	     20.28541615	     15.26567422	    -26.78191864	     15.00623996	    -10.31468017	      6.74208546	     75.05358532	     89.99559364	      0.00000000	      0.00000000	     59.18257027	     -7.14334143	      3.92000557	     21.48319196	     89.99559364	      0.00000000	      0.00000000
